<?xml version="1.0" standalone="no"?>
<!DOCTYPE svg PUBLIC "-//W3C//DTD SVG 20010904//EN"
 "http://www.w3.org/TR/2001/REC-SVG-20010904/DTD/svg10.dtd">
<svg version="1.0" xmlns="http://www.w3.org/2000/svg"
 width="512.000000pt" height="512.000000pt" viewBox="0 0 512.000000 512.000000"
 preserveAspectRatio="xMidYMid meet">
<metadata>
Created by potrace 1.16, written by Peter Selinger 2001-2019
</metadata>
<g transform="translate(0.000000,512.000000) scale(0.100000,-0.100000)"
fill="#000000" stroke="none">
<path d="M1316 5105 c-194 -53 -354 -220 -401 -416 -8 -35 -15 -79 -15 -96 l0
-33 -134 0 c-193 0 -176 46 -176 -462 l0 -409 25 -24 c23 -24 29 -25 155 -25
l130 0 0 -179 c0 -99 5 -214 11 -257 49 -356 288 -696 602 -855 84 -43 257
-97 367 -115 209 -35 478 3 690 98 158 70 369 260 468 420 132 213 182 420
182 749 l0 139 130 0 c120 0 131 2 150 22 19 21 20 33 20 443 0 416 0 422 -21
441 -18 16 -40 19 -150 22 -123 3 -129 5 -133 25 -2 12 -9 49 -15 82 -37 201
-203 377 -408 430 -80 21 -1401 21 -1477 0z m1363 -653 c70 -38 71 -43 71
-455 0 -399 -2 -413 -55 -455 l-28 -22 -604 0 c-663 0 -646 -1 -678 60 -13 24
-15 89 -15 412 0 418 0 415 59 455 l34 23 591 0 c554 0 593 -1 625 -18z"/>
<path d="M4468 2123 c-9 -10 -50 -143 -92 -295 l-76 -277 0 -753 c0 -666 2
-756 16 -776 15 -22 15 -22 354 -22 294 0 341 2 354 16 14 14 16 99 16 787 l0
772 -74 269 c-51 187 -79 274 -92 283 -13 10 -66 13 -204 13 -165 0 -189 -2
-202 -17z"/>
<path d="M1048 2089 c-416 -61 -774 -359 -910 -759 -55 -162 -58 -205 -58
-772 0 -339 4 -526 10 -539 10 -18 25 -19 390 -19 l380 0 0 505 0 505 145 159
145 160 0 385 0 386 -22 -1 c-13 -1 -49 -5 -80 -10z"/>
<path d="M1270 1691 l0 -409 -100 -111 c-55 -60 -100 -112 -100 -115 0 -4 208
-5 463 -4 l462 3 0 244 0 244 -52 13 c-177 45 -313 195 -342 374 -6 36 -11 89
-11 118 l0 52 -160 0 -160 0 0 -409z"/>
<path d="M2520 2030 c0 -140 -39 -245 -125 -338 -63 -68 -140 -116 -215 -135
l-55 -14 -3 -247 -2 -246 466 0 466 0 -47 53 c-25 28 -73 82 -106 120 l-59 68
0 404 0 405 -160 0 -160 0 0 -70z"/>
<path d="M2970 1712 l0 -387 140 -153 140 -153 0 -509 0 -510 380 0 380 0 15
24 c15 22 16 84 12 568 -3 455 -7 554 -20 609 -115 471 -466 805 -931 884 -49
8 -95 15 -102 15 -12 0 -14 -66 -14 -388z"/>
</g>
</svg>
